<?xml version="1.0" encoding="iso-8859-1"?>
<!-- Generator: Adobe Illustrator 18.0.0, SVG Export Plug-In . SVG Version: 6.00 Build 0)  -->
<!DOCTYPE svg PUBLIC "-//W3C//DTD SVG 1.1//EN" "http://www.w3.org/Graphics/SVG/1.1/DTD/svg11.dtd">
<svg version="1.1" id="Capa_1" xmlns="http://www.w3.org/2000/svg" xmlns:xlink="http://www.w3.org/1999/xlink" x="0px" y="0px"
	 viewBox="0 0 60.001 60.001" style="enable-background:new 0 0 60.001 60.001;" xml:space="preserve">
<g>
	<path d="M58.798,47.571L36.343,25.116c-1.223-1.224-2.855-1.897-4.596-1.897c-0.842,0-1.657,0.161-2.415,0.462L15.467,10.848
		C15.806,9.962,16,9.005,16,8.001c0-4.411-3.589-8-8-8s-8,3.589-8,8s3.589,8,8,8c0.88,0,1.725-0.148,2.518-0.412l13.157,13.755
		c-0.928,2.339-0.449,5.111,1.44,7.001L47.57,58.798c0.774,0.775,1.809,1.202,2.911,1.202s2.137-0.427,2.912-1.202l5.404-5.405
		C60.402,51.788,60.402,49.176,58.798,47.571z M34.929,26.53L54.42,46.021l-8.399,8.4l-1.776-1.776l1.548-1.547
		c2.242-2.243,2.242-5.892,0-8.134L34.855,32.027c-2.241-2.242-5.891-2.244-8.134,0l-1.233,1.233
		c-0.419-1.178-0.327-2.485,0.263-3.605c0.005-0.008,0.014-0.012,0.018-0.021c0.109-0.206,0.22-0.383,0.333-0.547
		c0.132-0.179,0.263-0.359,0.426-0.521l2.036-2.035c0.158-0.158,0.334-0.288,0.511-0.419c0.167-0.116,0.348-0.228,0.558-0.34
		c0.017-0.009,0.03-0.022,0.046-0.032c0.632-0.328,1.331-0.521,2.067-0.521C32.953,25.219,34.083,25.685,34.929,26.53z
		 M31.619,39.994c1.301-0.703,3.053-0.472,4.129,0.605c0.66,0.66,1.023,1.537,1.023,2.469c0,0.589-0.146,1.156-0.418,1.66
		L31.619,39.994z M37.162,39.185c-1.037-1.038-2.416-1.609-3.883-1.609c-1.134,0-2.21,0.348-3.121,0.982l-3.569-3.569l1.547-1.547
		c1.462-1.463,3.842-1.464,5.306,0l10.938,10.938c1.463,1.462,1.463,3.843,0,5.306l-1.548,1.547l-5.042-5.042
		c0.634-0.911,0.982-1.988,0.982-3.121C38.771,41.601,38.2,40.222,37.162,39.185z M6.981,13.907C6.932,13.401,6.519,13.001,6,13.001
		c-0.294,0-0.552,0.132-0.735,0.334c-0.272-0.14-0.531-0.301-0.777-0.479C4.789,12.683,5,12.372,5,12.001c0-0.552-0.448-1-1-1
		c-0.371,0-0.682,0.211-0.855,0.512c-0.178-0.246-0.339-0.505-0.479-0.777C2.868,10.552,3,10.295,3,10.001
		c0-0.519-0.4-0.932-0.907-0.981C2.036,8.688,2,8.349,2,8.001s0.036-0.687,0.093-1.019C2.6,6.933,3,6.52,3,6.001
		c0-0.294-0.132-0.552-0.334-0.735c0.14-0.272,0.301-0.531,0.479-0.777C3.318,4.789,3.629,5.001,4,5.001c0.552,0,1-0.448,1-1
		c0-0.371-0.211-0.682-0.512-0.855c0.246-0.178,0.505-0.339,0.777-0.479C5.448,2.869,5.706,3.001,6,3.001
		c0.519,0,0.932-0.401,0.981-0.907C7.313,2.037,7.652,2.001,8,2.001s0.687,0.036,1.019,0.093C9.068,2.6,9.481,3.001,10,3.001
		c0.294,0,0.552-0.132,0.735-0.334c0.272,0.14,0.531,0.301,0.777,0.479C11.211,3.318,11,3.629,11,4.001c0,0.552,0.448,1,1,1
		c0.371,0,0.682-0.211,0.855-0.512c0.178,0.246,0.339,0.505,0.479,0.777C13.132,5.449,13,5.707,13,6.001
		c0,0.519,0.4,0.932,0.907,0.981C13.964,7.314,14,7.653,14,8.001s-0.036,0.687-0.093,1.019C13.4,9.069,13,9.481,13,10.001
		c0,0.291,0.129,0.548,0.328,0.731c-0.14,0.272-0.298,0.533-0.475,0.778C12.68,11.211,12.37,11.001,12,11.001c-0.552,0-1,0.448-1,1
		c0,0.367,0.207,0.674,0.501,0.848c-0.064,0.047-0.12,0.105-0.186,0.149c-0.007,0.004-0.014,0.008-0.021,0.012
		c-0.18,0.119-0.377,0.211-0.57,0.31c-0.182-0.194-0.437-0.319-0.725-0.319c-0.519,0-0.932,0.4-0.981,0.907
		C8.687,13.965,8.348,14.001,8,14.001S7.313,13.965,6.981,13.907z M12.409,14.672c0.005-0.003,0.009-0.008,0.014-0.011
		c0.378-0.252,0.73-0.539,1.06-0.85c0.026-0.025,0.054-0.048,0.08-0.073c0.323-0.314,0.617-0.656,0.884-1.02
		c0.013-0.017,0.03-0.031,0.042-0.049l13.059,12.087c-0.081,0.069-0.159,0.142-0.237,0.214c-0.053,0.049-0.111,0.096-0.162,0.146
		l-2.036,2.036c-0.044,0.044-0.084,0.095-0.127,0.141c-0.084,0.089-0.167,0.179-0.246,0.272L12.409,14.672z M57.384,51.98
		l-5.404,5.405c-0.795,0.795-2.2,0.795-2.995,0l-1.549-1.549l8.399-8.4l1.55,1.549C58.209,49.811,58.209,51.154,57.384,51.98z"/>
	<circle cx="8" cy="4.001" r="1"/>
	<circle cx="6" cy="6.001" r="1"/>
	<circle cx="10" cy="6.001" r="1"/>
	<circle cx="12" cy="8.001" r="1"/>
	<circle cx="8" cy="12.001" r="1"/>
	<circle cx="8" cy="8.001" r="1"/>
	<circle cx="4" cy="8.001" r="1"/>
	<circle cx="6" cy="10.001" r="1"/>
	<circle cx="10" cy="10.001" r="1"/>
</g>
<g>
</g>
<g>
</g>
<g>
</g>
<g>
</g>
<g>
</g>
<g>
</g>
<g>
</g>
<g>
</g>
<g>
</g>
<g>
</g>
<g>
</g>
<g>
</g>
<g>
</g>
<g>
</g>
<g>
</g>
</svg>
