<svg height="30px" viewBox="0 -5 512.00015 512" width="30px" xmlns="http://www.w3.org/2000/svg"><path d="m501.1875 110.230469-77.179688-22.234375-22.234374-77.183594c-4.144532-14.398438-24.667969-14.4375-28.824219 0l-19.894531 69.058594c-33.476563-32.84375-83.40625-43.804688-129.105469-16.054688-17.679688 10.71875-39.640625 10.722656-57.3125 0-93.542969-56.796875-200.128907 49.371094-156.605469 155.664063 13.320312 32.566406 19.25 67.445312 17.152344 100.863281-4.78125 76.242188 30.160156 144.0625 83.824218 179.117188 4.925782 3.21875 6.765626 2.457031 32.621094 2.175781 8.21875-.089844 14.835938-6.777344 14.835938-15v-107.183594c0-20.382813 15.992187-37.300781 35.648437-37.707031 20.75-.410156 37.140625 17.570312 37.140625 38.582031v104.550781c0 8.285156 6.714844 15 15 15 29.195313 0 30.789063.78125 35.769532-2.640625 53.535156-36.851562 84.429687-103.929687 80.625-175.078125-1.535157-28.140625 2.101562-56.441406 10.558593-82.914062 4.796875 13.804687 24.535157 13.222656 28.566407-.773438l22.234374-77.183594 77.179688-22.234374c14.40625-4.148438 14.425781-24.667969 0-28.824219zm-168.496094 213.550781c3.160156 59.085938-21.261718 114.601562-63.96875 146.101562h-7.46875v-89.554687c0-37.371094-29.746094-69.335937-67.757812-68.574219-36.171875.746094-65.027344 30.84375-65.027344 67.699219v92.347656l-4.734375.050781c-44.355469-31.121093-70.394531-89.300781-66.609375-149.625 2.382812-37.910156-4.300781-77.367187-19.328125-114.109374-32.367187-79.039063 44.191406-160.59375 113.273437-118.652344 27.277344 16.542968 61.160157 16.542968 88.441407-.003906 31.828125-19.320313 63.328125-12.160157 85.808593 5.851562l-51.789062 14.917969c-14.402344 4.148437-14.425781 24.671875 0 28.828125l77.183594 22.234375 7.921875 27.507812c-1.359375 6.824219-3.445313 13.617188-6.230469 20.234375-15.042969 35.714844-21.863281 75.402344-19.714844 114.746094zm75.042969-189.023438c-4.957031 1.425782-8.832031 5.304688-10.257813 10.261719l-10.117187 35.113281-10.113281-35.113281c-1.429688-4.957031-5.304688-8.835937-10.261719-10.261719l-35.109375-10.113281 35.109375-10.113281c4.957031-1.429688 8.835937-5.304688 10.261719-10.265625l10.113281-35.109375 10.117187 35.109375c1.425782 4.960937 5.304688 8.835937 10.257813 10.265625l35.113281 10.113281zm0 0"/></svg>
